<?xml version="1.0" encoding="UTF-8"?>
<svg version="1.1" xmlns="http://www.w3.org/2000/svg" width="500" height="500">
<path d="M0 0 C165 0 330 0 500 0 C500 165 500 330 500 500 C335 500 170 500 0 500 C0 335 0 170 0 0 Z " fill="#000000" transform="translate(0,0)"/>
<path d="M0 0 C12.54961991 9.92295528 20.94170666 21.98819318 23.51953125 37.9921875 C23.51953125 38.6521875 23.51953125 39.3121875 23.51953125 39.9921875 C24.11596436 40.16451904 24.71239746 40.33685059 25.3269043 40.5144043 C41.74911822 45.33959452 57.47805934 51.72068213 72.89453125 59.1171875 C73.50382477 59.40647125 74.11311829 59.695755 74.74087524 59.99380493 C98.18779488 71.17563318 98.18779488 71.17563318 103.51953125 80.9921875 C103.3515625 83.62890625 103.3515625 83.62890625 102.51953125 85.9921875 C95.33914109 90.83895086 86.28763896 91.3560049 77.8671875 91.296875 C76.96404312 91.29299774 76.06089874 91.28912048 75.13038635 91.28512573 C64.62370485 91.12248553 54.33452282 89.657701 43.95703125 88.1171875 C42.03468973 87.84375169 40.11216325 87.57161303 38.18945312 87.30078125 C28.94543431 85.98834962 19.71687482 84.60247257 10.51953125 82.9921875 C10.22546387 83.6123877 9.93139648 84.23258789 9.62841797 84.87158203 C4.61092407 94.46690391 -7.80698652 99.62186009 -17.54296875 102.8671875 C-33.01907701 106.63528342 -49.5783216 104.25645025 -63.52734375 96.84375 C-77.18491874 88.28066727 -84.64020263 76.07301664 -89.48046875 60.9921875 C-89.56538574 60.15510254 -89.65030273 59.31801758 -89.73779297 58.45556641 C-90.23935987 55.83072205 -90.23935987 55.83072205 -92.55566406 54.64941406 C-93.46413086 54.31393555 -94.37259766 53.97845703 -95.30859375 53.6328125 C-96.3253418 53.24424072 -97.34208984 52.85566895 -98.38964844 52.45532227 C-99.49211914 52.05498779 -100.59458984 51.65465332 -101.73046875 51.2421875 C-104.03329886 50.36262978 -106.33537202 49.48108791 -108.63671875 48.59765625 C-109.79300781 48.1598584 -110.94929688 47.72206055 -112.140625 47.27099609 C-161.18874457 28.49072926 -161.18874457 28.49072926 -170.48046875 13.9921875 C-170.54296875 10.9296875 -170.54296875 10.9296875 -169.48046875 7.9921875 C-162.37514866 3.30913562 -154.61150711 3.79879287 -146.41796875 3.8046875 C-145.26071289 3.80549316 -144.10345703 3.80629883 -142.91113281 3.80712891 C-132.67006703 3.8790901 -122.6287474 4.66444076 -112.48046875 5.9921875 C-111.26746094 6.14816406 -110.05445313 6.30414063 -108.8046875 6.46484375 C-107.68707031 6.61824219 -106.56945312 6.77164063 -105.41796875 6.9296875 C-104.32742187 7.07792969 -103.236875 7.22617188 -102.11328125 7.37890625 C-99.27583388 7.85791618 -96.57194714 8.44589443 -93.78515625 9.13671875 C-84.85210441 11.48196373 -84.85210441 11.48196373 -76.31640625 9.23828125 C-73.62092989 6.69860912 -73.62092989 6.69860912 -71.14453125 3.84375 C-53.1821521 -15.38284352 -20.45404348 -14.29023127 0 0 Z " fill="#FABA58" transform="translate(283.48046875,183.0078125)"/>
<path d="M0 0 C11.71310313 9.76967346 19.52891462 22.89374219 22 38 C22.28271488 41.16913161 22.40127883 44.31900494 22.4375 47.5 C22.45296875 48.63066895 22.45296875 48.63066895 22.46875 49.78417969 C22.39115646 54.6057563 21.44777296 57.74669154 19 62 C18.4115719 63.44806586 17.84462829 64.90531233 17.3125 66.375 C16.879375 67.57125 16.44625 68.7675 16 70 C8.74017146 69.34623534 1.79112781 67.98903638 -5.3125 66.375 C-6.4787793 66.11211182 -7.64505859 65.84922363 -8.84667969 65.57836914 C-44.73543178 57.41116247 -44.73543178 57.41116247 -59.28515625 52.25 C-64.95757639 50.34129922 -70.72851966 48.78284485 -76.50756836 47.23022461 C-82.27057511 45.63991536 -87.60734223 43.58041042 -93 41 C-93.13658651 26.89256526 -89.20494984 16.53859597 -79.2890625 6.125 C-56.95497469 -14.60835114 -24.9671003 -19.74142814 0 0 Z " fill="#FEFDFD" transform="translate(286,185)"/>
<path d="M0 0 C0.60894104 0.18402374 1.21788208 0.36804749 1.84527588 0.55764771 C7.79620486 2.35031531 13.75783529 4.09945116 19.734375 5.8046875 C21.08387238 6.1898201 21.08387238 6.1898201 22.46063232 6.58273315 C31.77444492 9.23247206 41.1074892 11.81048569 50.44921875 14.35986328 C53.26386535 15.12878783 56.0772422 15.90224721 58.890625 16.67578125 C73.15322409 20.5811047 87.45563101 24.28409817 102 27 C95.82107649 38.10666312 84.67266485 43.96327838 72.9375 47.875 C57.46139174 51.64309592 40.90214715 49.26426275 26.953125 41.8515625 C13.38304538 33.34333797 5.68169286 21.07040801 1 6 C0.62758812 4.0069068 0.28212143 2.00786419 0 0 Z " fill="#FDFDFD" transform="translate(193,238)"/>
<path d="M0 0 C8.23587505 1.98878247 15.85865896 4.82366808 23.625 8.1875 C24.75856934 8.6736377 25.89213867 9.15977539 27.06005859 9.66064453 C53.62602022 21.12039718 53.62602022 21.12039718 62 27 C62 27.33 62 27.66 62 28 C50.176162 28.60635067 38.60543443 27.57744557 26.875 26.1875 C26.16200745 26.10463745 25.44901489 26.0217749 24.7144165 25.93640137 C14.38352876 24.72330358 4.20033435 23.03304161 -6 21 C-4.92735024 15.50372572 -3.56591079 11.02026023 -1 6 C-0.29241674 2.7633037 -0.29241674 2.7633037 0 0 Z " fill="#070502" transform="translate(308,235)"/>
<path d="M0 0 C22.03908229 -0.59091879 43.3433213 2.10013832 65 6 C65.495 7.485 65.495 7.485 66 9 C65.71382813 9.56203125 65.42765625 10.1240625 65.1328125 10.703125 C63.54546815 13.92160252 63.28098146 17.22927555 62.875 20.75 C62.78863281 21.44738281 62.70226562 22.14476562 62.61328125 22.86328125 C62.40228154 24.57472332 62.20024499 26.28726629 62 28 C54.43164236 25.88811978 47.16204235 23.24348791 39.875 20.3125 C38.77913574 19.87260742 37.68327148 19.43271484 36.55419922 18.97949219 C23.89771133 13.83052241 11.92201542 7.66824591 0 1 C0 0.67 0 0.34 0 0 Z " fill="#050302" transform="translate(131,198)"/>
<path d="M0 0 C1.20527344 -0.02578125 2.41054688 -0.0515625 3.65234375 -0.078125 C7.3157528 0.27436797 9.15461643 1.04365003 12.0625 3.25 C13.52348845 6.1719769 13.17384901 8.74893475 13.16015625 12.0078125 C13.1587413 12.67086395 13.15732635 13.33391541 13.15586853 14.01705933 C13.15026754 16.13641863 13.137715 18.25567259 13.125 20.375 C13.11998512 21.81119639 13.11542219 23.24739444 13.11132812 24.68359375 C13.10029782 28.20576345 13.08303259 31.72787145 13.0625 35.25 C12.0725 35.25 11.0825 35.25 10.0625 35.25 C9.7325 33.93 9.4025 32.61 9.0625 31.25 C8.258125 31.889375 7.45375 32.52875 6.625 33.1875 C2.6975953 35.77791587 -1.25237583 36.62648319 -5.9375 36.25 C-11.33509036 33.45481928 -11.33509036 33.45481928 -12.9375 30.25 C-13.46704417 25.83134453 -13.52462449 22.33030907 -11.375 18.375 C-4.71946056 12.57273485 1.57803489 12.87384145 10.0625 13.25 C8.5775 8.795 8.5775 8.795 7.0625 4.25 C4.64575776 4.22294692 2.2293206 4.20313562 -0.1875 4.1875 C-0.86941406 4.17912109 -1.55132812 4.17074219 -2.25390625 4.16210938 C-5.63092554 4.14571608 -8.71041639 4.19371232 -11.9375 5.25 C-11.6075 3.93 -11.2775 2.61 -10.9375 1.25 C-7.29006851 0.12211595 -3.80338933 0.04870936 0 0 Z " fill="#ECECEC" transform="translate(327.9375,309.75)"/>
<path d="M0 0 C0.72058594 -0.01224609 1.44117188 -0.02449219 2.18359375 -0.03710938 C9.19438125 -0.05647619 9.19438125 -0.05647619 12.125 2.1875 C14.44194028 5.71226228 14.3566961 8.77414509 14.3203125 12.921875 C14.31386719 14.21738281 14.30742187 15.51289063 14.30078125 16.84765625 C14.28407193 18.21094019 14.26714206 19.57422144 14.25 20.9375 C14.2399634 22.31639985 14.23083873 23.69530665 14.22265625 25.07421875 C14.19908093 28.44548882 14.1661727 31.81640636 14.125 35.1875 C13.135 35.1875 12.145 35.1875 11.125 35.1875 C10.63 32.7125 10.63 32.7125 10.125 30.1875 C9.196875 30.991875 8.26875 31.79625 7.3125 32.625 C4.21977545 35.30536127 1.89962464 36.1157755 -2.25 36.5 C-6.46834314 36.13634973 -7.92384992 35.13865008 -10.875 32.1875 C-12.74518354 28.44713292 -12.55315973 24.25006066 -11.875 20.1875 C-9.27402674 16.39077729 -5.14117942 14.58889033 -0.875 13.1875 C2.23828125 12.9921875 2.23828125 12.9921875 5.4375 13.0625 C6.50613281 13.08054687 7.57476562 13.09859375 8.67578125 13.1171875 C9.48402344 13.14039063 10.29226562 13.16359375 11.125 13.1875 C10.84348913 11.87278432 10.54946661 10.56074233 10.25 9.25 C10.08757812 8.51910156 9.92515625 7.78820312 9.7578125 7.03515625 C9.29538477 4.98049706 9.29538477 4.98049706 7.125 4.1875 C5.02268123 4.08998453 2.91707377 4.05773313 0.8125 4.0625 C-0.31800781 4.05992187 -1.44851562 4.05734375 -2.61328125 4.0546875 C-5.49653596 4.17208949 -8.0740855 4.52537012 -10.875 5.1875 C-10.5 3.25 -10.5 3.25 -9.875 1.1875 C-6.74650741 -0.37674629 -3.43069916 0.00303602 0 0 Z " fill="#ECECEC" transform="translate(158.875,309.8125)"/>
<path d="M0 0 C4.17197958 2.0300437 5.92950414 4.85900829 8 9 C8 11.97 8 14.94 8 18 C-0.25 18 -8.5 18 -17 18 C-15.74792673 26.18330956 -15.74792673 26.18330956 -11 31 C-6.2418865 33.37905675 0.99632677 32.33431286 6 31 C5.67 32.32 5.34 33.64 5 35 C-0.79859167 36.65674048 -6.67403318 36.81839573 -12.375 34.8125 C-16.90521881 31.68449177 -19.24397487 28.15502655 -21 23 C-21.7495674 16.39991302 -21.43910544 10.73184241 -18 5 C-13.04760282 -0.96827353 -7.48279478 -1.29155088 0 0 Z " fill="#E9E9E9" transform="translate(300,310)"/>
<path d="M0 0 C0.99 0 1.98 0 3 0 C3.33 1.32 3.66 2.64 4 4 C4.7115625 3.01 4.7115625 3.01 5.4375 2 C8.71544096 -0.55839295 10.80835759 -0.56688537 14.87109375 -0.40625 C17.87982422 0.16789306 19.24382798 1.55663023 21 4 C23.46800047 2.84826645 25.04783565 1.95216435 27 0 C29.20703125 -0.40625 29.20703125 -0.40625 31.8125 -0.5 C32.66457031 -0.5515625 33.51664063 -0.603125 34.39453125 -0.65625 C37.42840479 0.10790406 39.15394873 1.23868468 41.04711914 3.74902344 C43.29984672 9.07060895 42.49313298 15.20107953 42.3125 20.875 C42.28739222 22.24475108 42.26458339 23.61454635 42.24414062 24.984375 C42.1853436 28.32404622 42.10319834 31.66145431 42 35 C41.01 35 40.02 35 39 35 C38.970271 33.80455566 38.970271 33.80455566 38.93994141 32.58496094 C38.84466752 28.97297528 38.73499693 25.36156601 38.625 21.75 C38.5940625 20.49574219 38.563125 19.24148438 38.53125 17.94921875 C38.47324219 16.14130859 38.47324219 16.14130859 38.4140625 14.296875 C38.3826416 13.18666992 38.3512207 12.07646484 38.31884766 10.93261719 C38.00679133 8.0624636 37.65564292 6.3503422 36 4 C32.68794765 2.65749408 32.68794765 2.65749408 29 3 C25.56026703 5.78788853 24.24558394 7.53624657 23.50805664 11.93212891 C23.28351522 15.42029448 23.20454075 18.87975252 23.1875 22.375 C23.16236328 23.58800781 23.13722656 24.80101562 23.11132812 26.05078125 C23.0525998 29.0341804 23.0162133 32.01611693 23 35 C21.68 35 20.36 35 19 35 C18.98018066 34.13197754 18.96036133 33.26395508 18.93994141 32.36962891 C18.86190128 29.15273733 18.77521119 25.93622955 18.68261719 22.71972656 C18.64430673 21.32691428 18.60945741 19.93400235 18.578125 18.54101562 C18.53252093 16.54013692 18.47348377 14.53957854 18.4140625 12.5390625 C18.36693115 10.73236084 18.36693115 10.73236084 18.31884766 8.88916016 C18.29084774 5.8739982 18.29084774 5.8739982 16 4 C11.89652914 3.33041175 11.89652914 3.33041175 8 4 C2.71126186 9.32611438 3.33868025 15.73220932 3.25 22.875 C3.22035156 24.0403125 3.19070312 25.205625 3.16015625 26.40625 C3.08971399 29.27090195 3.03688887 32.13475205 3 35 C2.01 35 1.02 35 0 35 C0 23.45 0 11.9 0 0 Z " fill="#DADADA" transform="translate(96,310)"/>
<path d="M0 0 C0.99 0 1.98 0 3 0 C3.33 6.6 3.66 13.2 4 20 C6.97 17.525 6.97 17.525 10 15 C14.71912537 13.85747491 18.78399959 14.31599977 23 16.6875 C26.64967808 20.90744028 27.24933768 24.69222511 27.1953125 30.17578125 C27.18886719 31.33271484 27.18242187 32.48964844 27.17578125 33.68164062 C27.15902344 34.87982422 27.14226562 36.07800781 27.125 37.3125 C27.11597656 38.53001953 27.10695313 39.74753906 27.09765625 41.00195312 C27.07413037 44.00150274 27.04125653 47.00065044 27 50 C25.68 50 24.36 50 23 50 C22.98541748 49.16750732 22.97083496 48.33501465 22.95581055 47.47729492 C22.8947137 44.38510347 22.82055444 41.29357918 22.73754883 38.2019043 C22.68798681 36.2070937 22.65348867 34.21192743 22.61914062 32.21679688 C22.5659668 30.33637695 22.5659668 30.33637695 22.51171875 28.41796875 C22.48553467 27.26063232 22.45935059 26.1032959 22.43237305 24.91088867 C22.23566219 22.00715693 22.23566219 22.00715693 20.60058594 20.12158203 C18.48793744 18.6411813 17.12422501 18.63134077 14.5625 18.6875 C13.80066406 18.69136719 13.03882813 18.69523437 12.25390625 18.69921875 C9.67058275 19.04396036 8.13874507 19.49697533 6 21 C4.21700549 24.63793231 3.71511902 27.71212396 3.5859375 31.73828125 C3.54726563 32.80498047 3.50859375 33.87167969 3.46875 34.97070312 C3.4378125 36.07349609 3.406875 37.17628906 3.375 38.3125 C3.33632813 39.43462891 3.29765625 40.55675781 3.2578125 41.71289062 C3.16377989 44.47509852 3.07812659 47.237304 3 50 C2.01 50 1.02 50 0 50 C0 33.5 0 17 0 0 Z " fill="#FBFBFB" transform="translate(414,295)"/>
<path d="M0 0 C0.72058594 -0.01224609 1.44117187 -0.02449219 2.18359375 -0.03710938 C5.98987912 -0.04762398 8.90013112 0.05165752 12.125 2.1875 C12.125 3.1775 12.125 4.1675 12.125 5.1875 C10.84689453 4.94773437 10.84689453 4.94773437 9.54296875 4.703125 C6.13417349 4.18888389 2.88295916 3.98552034 -0.5625 3.9375 C-2.23892578 3.89882813 -2.23892578 3.89882813 -3.94921875 3.859375 C-6.83902254 3.95917905 -6.83902254 3.95917905 -8.7578125 5.4296875 C-10.6103847 8.34457382 -10.19974551 10.66018379 -9.6953125 13.9765625 C-8.15580633 18.12589819 -4.71022778 19.41065711 -0.875 21.1875 C10.90777886 26.75305773 10.90777886 26.75305773 14.125 33.1875 C14.52575882 38.39736472 14.18611371 41.88280884 11.125 46.1875 C6.6291577 49.5963194 1.9739825 50.82728362 -3.62109375 50.59375 C-7.50070451 49.89447874 -10.48288292 48.16109539 -13.875 46.1875 C-13.875 45.1975 -13.875 44.2075 -13.875 43.1875 C-13.111875 43.496875 -12.34875 43.80625 -11.5625 44.125 C-5.51646512 46.51529286 -0.54177897 47.2057247 5.5625 44.875 C8.40346354 43.38275998 8.40346354 43.38275998 9.125 40.1875 C9.46514796 37.17476091 9.69982215 35.09006729 9.125 32.1875 C5.2580615 27.70999226 0.92011009 26.24889803 -4.53515625 24.22265625 C-8.92134415 22.28218915 -11.27976212 19.08035683 -13.875 15.1875 C-14.61465025 10.59478797 -14.48461194 7.16287911 -12 3.1875 C-8.24140743 -0.34999889 -4.92705043 0.00436022 0 0 Z " fill="#E7E7E7" transform="translate(72.875,295.8125)"/>
<path d="M0 0 C-0.33 1.32 -0.66 2.64 -1 4 C-1.68835938 3.67644531 -2.37671875 3.35289062 -3.0859375 3.01953125 C-6.41536469 1.85467804 -9.1038449 1.69964191 -12.625 1.6875 C-13.75164062 1.67074219 -14.87828125 1.65398437 -16.0390625 1.63671875 C-18.97028214 1.761394 -18.97028214 1.761394 -20.87109375 3.30859375 C-22.81043998 6.21425782 -22.40754485 8.62319982 -22 12 C-19.09064657 16.64213011 -16.1262046 18.07306234 -11.0625 19.9375 C-1.57599499 23.74893329 -1.57599499 23.74893329 1 29 C1.77682504 33.48013749 2.06912315 37.79629718 0.04296875 41.97265625 C-2.45775981 45.20375632 -5.05451632 47.10329916 -9 48 C-15.40657789 48.6763182 -20.12883899 47.56196117 -26 45 C-25.67 43.68 -25.34 42.36 -25 41 C-24.01 41.495 -23.02 41.99 -22 42.5 C-16.7117077 44.75420137 -12.16889973 44.51264903 -6.5625 43.1875 C-5.716875 42.795625 -4.87125 42.40375 -4 42 C-2.78333898 38.35001694 -2.24498227 34.78201543 -3 31 C-5.71176975 26.72671354 -8.23280717 25.14020724 -12.9375 23.4375 C-18.63389825 21.35626221 -22.58666342 19.12000487 -26 14 C-26.8627076 8.64125857 -26.92516855 4.38775283 -23.875 -0.1875 C-17.24308746 -4.56646618 -6.94068483 -2.63449775 0 0 Z " fill="#EBEBEB" transform="translate(271,298)"/>
<path d="M0 0 C1.32 0 2.64 0 4 0 C4 3.96 4 7.92 4 12 C8.29 12 12.58 12 17 12 C17 12.99 17 13.98 17 15 C12.71 15 8.42 15 4 15 C4.33 24.24 4.66 33.48 5 43 C8.63 43 12.26 43 16 43 C16 43.99 16 44.98 16 46 C12.79582279 47.6020886 9.47660568 47.49285215 6 47 C2.55687286 44.8755173 1.28382453 43.85147359 0 40 C-0.08239169 38.15389468 -0.10743359 36.30494836 -0.09765625 34.45703125 C-0.09443359 33.38388672 -0.09121094 32.31074219 -0.08789062 31.20507812 C-0.07951172 30.08552734 -0.07113281 28.96597656 -0.0625 27.8125 C-0.05798828 26.68134766 -0.05347656 25.55019531 -0.04882812 24.38476562 C-0.03703498 21.58979073 -0.0205765 18.7949218 0 16 C-2.64 16 -5.28 16 -8 16 C-8 14.68 -8 13.36 -8 12 C-5.36 12 -2.72 12 0 12 C0 8.04 0 4.08 0 0 Z " fill="#D4D4D4" transform="translate(218,299)"/>
<path d="M0 0 C1.63001953 0.01353516 1.63001953 0.01353516 3.29296875 0.02734375 C4.12441406 0.03894531 4.95585937 0.05054688 5.8125 0.0625 C6.12714883 5.30664718 5.65106733 8.60189419 2.8125 13.0625 C-0.04016851 16.12647729 -3.15822309 16.82721773 -7.21484375 17.18359375 C-9.1875 17.0625 -9.1875 17.0625 -12.1875 15.5625 C-14.1875 13.0625 -14.1875 13.0625 -14.8125 9.625 C-14.03877177 5.21474906 -12.65606046 3.80508269 -9.1875 1.0625 C-5.90230525 -0.03256492 -3.45086585 -0.03710608 0 0 Z " fill="#070707" transform="translate(332.1875,325.9375)"/>
<path d="M0 0 C0.98484375 0.00902344 1.9696875 0.01804687 2.984375 0.02734375 C4.10585937 0.04474609 4.10585937 0.04474609 5.25 0.0625 C5.71999819 5.81997779 4.93689867 9.65870437 1.25 14.0625 C-2.73449072 16.74770027 -5.96382083 17.79083161 -10.75 17.0625 C-13.125 15.5625 -13.125 15.5625 -14.75 13.0625 C-15.36475157 10.2587732 -15.4218633 7.85905919 -14.75 5.0625 C-10.3642898 0.31131395 -6.19773599 -0.07378257 0 0 Z " fill="#070707" transform="translate(164.75,325.9375)"/>
<path d="M0 0 C2.32137945 2.26334497 3.5682467 4.13649339 5 7 C5 8.98 5 10.96 5 13 C-2.26 13 -9.52 13 -17 13 C-17 6.82266335 -16.71557294 5.54125581 -13 1 C-8.72944448 -1.70049834 -4.74508112 -1.37816694 0 0 Z " fill="#0F0F0F" transform="translate(300,313)"/>
<path d="M0 0 C0.33 1.32 0.66 2.64 1 4 C-0.03640625 3.95359375 -1.0728125 3.9071875 -2.140625 3.859375 C-3.51038779 3.82184725 -4.88018182 3.78544816 -6.25 3.75 C-7.27287109 3.69972656 -7.27287109 3.69972656 -8.31640625 3.6484375 C-11.81504793 3.58050271 -13.62467601 3.70700514 -16.421875 5.890625 C-19.21029695 9.61772365 -19.19122846 12.10704821 -19.25 16.75 C-19.27578125 17.96171875 -19.3015625 19.1734375 -19.328125 20.421875 C-18.96713333 24.35840323 -18.14603487 26.69394627 -16 30 C-12.6953591 32.55890335 -9.30907377 32.20618148 -5.25 32.125 C-4.07953125 32.10695313 -2.9090625 32.08890625 -1.703125 32.0703125 C-0.81109375 32.04710937 0.0809375 32.02390625 1 32 C0.67 32.99 0.34 33.98 0 35 C-5.21773583 36.73924528 -10.16543322 36.69228935 -15.3125 34.75 C-19.88805295 31.77057017 -22.29080136 29.20095207 -24 24 C-24.85302459 15.14848508 -24.2748418 9.18452007 -18.75 2.125 C-13.84877832 -1.80854458 -5.93813261 -0.33996942 0 0 Z " fill="#E4E4E4" transform="translate(402,310)"/>
<path d="M0 0 C1.32 0 2.64 0 4 0 C4.33 1.98 4.66 3.96 5 6 C5.7425 5.38125 6.485 4.7625 7.25 4.125 C12.10063812 0.37677963 14.77762124 -0.23932226 21 0 C21 0.99 21 1.98 21 3 C20.11248047 3.14695312 20.11248047 3.14695312 19.20703125 3.296875 C14.16626836 4.25075509 10.68851724 5.19970951 7 9 C5.10116369 12.11177159 4.71222659 14.58283787 4.5859375 18.203125 C4.52792969 19.67265625 4.52792969 19.67265625 4.46875 21.171875 C4.42234375 22.69554687 4.42234375 22.69554687 4.375 24.25 C4.33632813 25.28125 4.29765625 26.3125 4.2578125 27.375 C4.16368326 29.9164894 4.07805021 32.45797433 4 35 C2.68 35 1.36 35 0 35 C0 23.45 0 11.9 0 0 Z " fill="#DADADA" transform="translate(351,310)"/>
<path d="M0 0 C1.32 0 2.64 0 4 0 C4.33 1.98 4.66 3.96 5 6 C5.804375 5.195625 6.60875 4.39125 7.4375 3.5625 C11.26663263 0.31186942 15.1211256 0.11926137 20 0 C20 0.99 20 1.98 20 3 C18.1746875 3.37125 18.1746875 3.37125 16.3125 3.75 C11.02664753 5.06912425 8.02638572 7.46042142 5 12 C4.63303819 14.51502177 4.63303819 14.51502177 4.5859375 17.32421875 C4.54726562 18.35224609 4.50859375 19.38027344 4.46875 20.43945312 C4.42234375 22.04723633 4.42234375 22.04723633 4.375 23.6875 C4.33632812 24.77095703 4.29765625 25.85441406 4.2578125 26.97070312 C4.16349491 29.64696467 4.07789995 32.32321843 4 35 C2.68 35 1.36 35 0 35 C0 23.45 0 11.9 0 0 Z " fill="#EAEAEA" transform="translate(183,310)"/>
<path d="M0 0 C8.89464594 -0.62176166 8.89464594 -0.62176166 13 1.6875 C16.64967808 5.90744028 17.24933768 9.69222511 17.1953125 15.17578125 C17.18886719 16.33271484 17.18242187 17.48964844 17.17578125 18.68164062 C17.15902344 19.87982422 17.14226562 21.07800781 17.125 22.3125 C17.11597656 23.53001953 17.10695313 24.74753906 17.09765625 26.00195312 C17.07413037 29.00150274 17.04125653 32.00065044 17 35 C15.68 35 14.36 35 13 35 C12.98541748 34.16750732 12.97083496 33.33501465 12.95581055 32.47729492 C12.8947137 29.38510347 12.82055444 26.29357918 12.73754883 23.2019043 C12.68798681 21.2070937 12.65348867 19.21192743 12.61914062 17.21679688 C12.58369141 15.96318359 12.54824219 14.70957031 12.51171875 13.41796875 C12.48553467 12.26063232 12.45935059 11.1032959 12.43237305 9.91088867 C12.23736129 7.00671069 12.23736129 7.00671069 10.59570312 5.13085938 C8.61989619 3.7306241 7.21354616 3.50930706 4.8125 3.3125 C2.9253125 3.1578125 2.9253125 3.1578125 1 3 C0.67 2.01 0.34 1.02 0 0 Z " fill="#DCDCDC" transform="translate(424,310)"/>
<path d="M0 0 C1.8253125 -0.185625 1.8253125 -0.185625 3.6875 -0.375 C4.71423828 -0.47941406 4.71423828 -0.47941406 5.76171875 -0.5859375 C8.59630633 0.15610113 10.23765554 1.42583536 12.01635742 3.74462891 C14.32769463 9.04424002 13.4930848 15.20259306 13.3125 20.875 C13.28739222 22.24475108 13.26458339 23.61454635 13.24414062 24.984375 C13.1853436 28.32404622 13.10319834 31.66145431 13 35 C12.01 35 11.02 35 10 35 C9.98018066 34.20303711 9.96036133 33.40607422 9.93994141 32.58496094 C9.84466752 28.97297528 9.73499693 25.36156601 9.625 21.75 C9.5940625 20.49574219 9.563125 19.24148438 9.53125 17.94921875 C9.49257812 16.74394531 9.45390625 15.53867187 9.4140625 14.296875 C9.36693115 12.63156738 9.36693115 12.63156738 9.31884766 10.93261719 C9.00945614 8.08697335 8.56780964 6.37267449 7 4 C5.06018382 3.09390008 5.06018382 3.09390008 2.875 2.75 C1.59625 2.5025 0.3175 2.255 -1 2 C-0.67 1.34 -0.34 0.68 0 0 Z " fill="#F8F8F8" transform="translate(125,310)"/>
<path d="M0 0 C0.99 0 1.98 0 3 0 C3.33 1.32 3.66 2.64 4 4 C4.99 3.34 5.98 2.68 7 2 C6.54292063 4.13303706 6.07360823 5.87108805 4.98681641 7.77441406 C3.7503443 10.56305328 3.67916975 12.81378811 3.5859375 15.859375 C3.54726562 16.97441406 3.50859375 18.08945312 3.46875 19.23828125 C3.4378125 20.39714844 3.406875 21.55601562 3.375 22.75 C3.33632812 23.92433594 3.29765625 25.09867187 3.2578125 26.30859375 C3.1636018 29.20557268 3.07798398 32.10254626 3 35 C2.01 35 1.02 35 0 35 C0 23.45 0 11.9 0 0 Z " fill="#FBFBFB" transform="translate(96,310)"/>
<path d="M0 0 C1.32 0 2.64 0 4 0 C4.33 1.98 4.66 3.96 5 6 C5.804375 5.195625 6.60875 4.39125 7.4375 3.5625 C11.26663263 0.31186942 15.1211256 0.11926137 20 0 C20 0.99 20 1.98 20 3 C18.205625 3.37125 18.205625 3.37125 16.375 3.75 C12.29632229 4.74620801 9.44640775 6.59552948 6 9 C5.01 9 4.02 9 3 9 C3 6.36 3 3.72 3 1 C2.34 1 1.68 1 1 1 C1 12.22 1 23.44 1 35 C0.67 35 0.34 35 0 35 C0 23.45 0 11.9 0 0 Z " fill="#D1D1D1" transform="translate(183,310)"/>
<path d="M0 0 C1.093125 0.495 2.18625 0.99 3.3125 1.5 C8.50656323 3.48623962 13.515183 3.27222437 19 3 C18.34 4.32 17.68 5.64 17 7 C10.54107286 7.40368295 5.93891422 6.5915262 0 4 C0 2.68 0 1.36 0 0 Z " fill="#E0E0E0" transform="translate(245,339)"/>
<path d="M0 0 C1.91635217 -0.05423638 3.83314925 -0.09289963 5.75 -0.125 C7.35101563 -0.15980469 7.35101563 -0.15980469 8.984375 -0.1953125 C11.92470106 -0.00487687 13.52361878 0.47329896 16 2 C16 2.99 16 3.98 16 5 C10.39 4.34 4.78 3.68 -1 3 C-0.67 2.01 -0.34 1.02 0 0 Z " fill="#E0E0E0" transform="translate(69,296)"/>
<path d="M0 0 C3.96 0 7.92 0 12 0 C12.33 1.32 12.66 2.64 13 4 C6.07 3.505 6.07 3.505 -1 3 C-0.67 2.01 -0.34 1.02 0 0 Z " fill="#DADADA" transform="translate(390,310)"/>
<path d="M0 0 C0 0.33 0 0.66 0 1 C-1.134375 1.12375 -2.26875 1.2475 -3.4375 1.375 C-5.2009375 1.684375 -5.2009375 1.684375 -7 2 C-7.33 2.66 -7.66 3.32 -8 4 C-11.29150026 5.52384271 -14.55931072 6.85310357 -18 8 C-16.2576496 3.81131923 -14.23836868 2.62366737 -10.2421875 0.75 C-6.70910361 -0.43179809 -3.69781089 -0.26412935 0 0 Z " fill="#D3D3D3" transform="translate(334,323)"/>
<path d="M0 0 C0 2.31 0 4.62 0 7 C-0.66 5.68 -1.32 4.36 -2 3 C-3.98 4.32 -5.96 5.64 -8 7 C-8.33 6.34 -8.66 5.68 -9 5 C-4.5 0 -4.5 0 0 0 Z " fill="#E1E1E1" transform="translate(339,338)"/>
<path d="M0 0 C3 1 3 1 4 3 C3.30132812 3.27714844 2.60265625 3.55429687 1.8828125 3.83984375 C0.97273437 4.20207031 0.06265625 4.56429688 -0.875 4.9375 C-1.77992188 5.29714844 -2.68484375 5.65679687 -3.6171875 6.02734375 C-5.96137667 6.94901262 -5.96137667 6.94901262 -8 8 C-6.49860488 3.79609368 -3.82724957 2.10889262 0 0 Z " fill="#DEDEDE" transform="translate(155,324)"/>
<path d="M0 0 C0.99 0.33 1.98 0.66 3 1 C-0.12621626 4.39417765 -2.56541027 6.6062718 -7 8 C-5.51218185 4.21282653 -3.38011591 2.22592999 0 0 Z " fill="#E3E3E3" transform="translate(288,310)"/>
<path d="M0 0 C-0.33 0.66 -0.66 1.32 -1 2 C-3.3140622 2.73075648 -5.64828869 3.40138258 -8 4 C-7.67 2.68 -7.34 1.36 -7 0 C-3.98968256 -0.93423645 -3.13349732 -1.04449911 0 0 Z " fill="#DBDBDB" transform="translate(324,311)"/>
<path d="M0 0 C0.66 0.33 1.32 0.66 2 1 C1.67 1.99 1.34 2.98 1 4 C-1.5625 5.1875 -1.5625 5.1875 -4 6 C-4 5.01 -4 4.02 -4 3 C-2 1.3125 -2 1.3125 0 0 Z " fill="#E0E0E0" transform="translate(361,312)"/>
<path d="M0 0 C2.97 0 5.94 0 9 0 C8.67 0.99 8.34 1.98 8 3 C5.03 3 2.06 3 -1 3 C-0.67 2.01 -0.34 1.02 0 0 Z " fill="#F2F2F2" transform="translate(291,310)"/>
<path d="M0 0 C-0.99 0.33 -1.98 0.66 -3 1 C-2.67 1.66 -2.34 2.32 -2 3 C-3.65 3.33 -5.3 3.66 -7 4 C-6.625 2.0625 -6.625 2.0625 -6 0 C-3.50907189 -1.24546405 -2.58919267 -0.7767578 0 0 Z " fill="#C2C2C2" transform="translate(155,311)"/>
</svg>
